# xmcd CD database file generated by LOLA_Freedb v0.9beta0
# 
# Track frame offsets:
#      150
#      27040
#      54012
#      75838
#      92208
#      140148
# 
# Disc length: 2296 seconds
# 
# Revision: 0 
# Processed by: cddbd v1.5.2PL0 Copyright (c) Steve Scherf et al.
# Submitted via: LOLA_Freedb v0.9beta0
# 
DISCID=3c08f606
DTITLE=Lou Reed - Live
DYEAR=1975
DGENRE=
TTITLE0=Vicious
TTITLE1=Satellite Of Love
TTITLE2=Walk On The Wild Side
TTITLE3=I´m Waiting For The Man
TTITLE4=Oh Jim
TTITLE5=Sad Songs
EXTD=
EXTT0=
EXTT1=
EXTT2=
EXTT3=
EXTT4=
EXTT5=
PLAYORDER=
